<mxfile host="app.diagrams.net" modified="2023-05-01T08:12:56.479Z" agent="Mozilla/5.0 (Windows NT 10.0; Win64; x64) AppleWebKit/537.36 (KHTML, like Gecko) Chrome/112.0.0.0 Safari/537.36" version="21.2.1" etag="F8D1f89OsGbE-ERgL2U1" type="github">
  <diagram name="Page-1" id="Cwkv3wkECROm96Aq5izG">
    <mxGraphModel>
      <root>
        <mxCell id="0" />
        <mxCell id="1" parent="0" />
      </root>
    </mxGraphModel>
  </diagram>
</mxfile>
